<?xml version="1.0" standalone="no"?>
<!DOCTYPE svg PUBLIC "-//W3C//DTD SVG 20010904//EN"
 "http://www.w3.org/TR/2001/REC-SVG-20010904/DTD/svg10.dtd">
<svg version="1.0" xmlns="http://www.w3.org/2000/svg"
 width="32.000000pt" height="32.000000pt" viewBox="0 0 32.000000 32.000000"
 preserveAspectRatio="xMidYMid meet">
<metadata>
Created by potrace 1.16, written by Peter Selinger 2001-2019
</metadata>
<g transform="translate(0.000000,32.000000) scale(0.100000,-0.100000)"
fill="#000000" stroke="none">
<path d="M72 300 c-98 -60 -98 -224 0 -280 25 -13 29 -13 44 1 15 15 13 20
-15 59 -42 58 -43 110 -2 151 31 31 64 36 104 18 29 -13 47 -44 57 -96 l8 -38
1 43 c1 45 -19 103 -47 137 -14 16 -12 16 9 -2 29 -26 41 -29 33 -9 -14 38
-139 48 -192 16z"/>
</g>
</svg>
