<?xml version="1.0" standalone="no"?>
<!DOCTYPE svg PUBLIC "-//W3C//DTD SVG 20010904//EN"
 "http://www.w3.org/TR/2001/REC-SVG-20010904/DTD/svg10.dtd">
<svg version="1.0" xmlns="http://www.w3.org/2000/svg"
 width="106.000000pt" height="36.000000pt" viewBox="0 0 106.000000 36.000000"
 preserveAspectRatio="xMidYMid meet">
<metadata>
Created by potrace 1.16, written by Peter Selinger 2001-2019
</metadata>
<g transform="translate(0.000000,36.000000) scale(0.100000,-0.100000)"
fill="#000000" stroke="none">
<path d="M66 341 c-47 -31 -66 -69 -66 -132 0 -46 5 -63 30 -97 35 -49 48 -51
80 -17 l24 25 -29 30 c-52 55 -25 133 46 133 42 0 83 -44 74 -80 -4 -17 -2
-22 5 -18 7 4 10 28 9 56 -2 28 2 54 9 61 18 18 15 26 -18 43 -41 21 -128 19
-164 -4z"/>
<path d="M500 184 c0 -24 5 -44 10 -44 6 0 10 6 10 14 0 7 11 16 25 18 19 4
25 1 25 -13 0 -16 8 -19 50 -19 38 0 50 4 50 15 0 8 5 15 10 15 6 0 10 -7 10
-15 0 -10 10 -15 30 -15 20 0 30 5 30 15 0 8 8 15 19 15 10 0 24 -7 31 -15 15
-18 51 -20 68 -3 9 9 12 9 12 0 0 -7 13 -12 30 -12 22 0 30 5 30 18 1 16 1 16
11 0 16 -29 39 -22 39 12 0 17 5 30 10 30 6 0 10 -13 10 -30 0 -20 5 -30 15
-30 10 0 15 10 15 30 0 17 5 30 10 30 6 0 10 7 10 15 0 11 -12 15 -50 15 -32
0 -50 -4 -50 -12 0 -9 -3 -9 -12 0 -16 16 -68 16 -68 0 0 -9 -3 -9 -12 0 -15
15 -55 16 -63 2 -5 -7 -11 -8 -19 -1 -6 5 -73 10 -149 10 l-137 0 0 -45z"/>
</g>
</svg>
